<svg xmlns="http://www.w3.org/2000/svg" version="1.1" xmlns:xlink="http://www.w3.org/1999/xlink" xmlns:svgjs="http://svgjs.dev/svgjs" width="2000" height="1500" viewBox="0 0 2000 1500"><rect width="2000" height="1500" fill="#000000"></rect><g transform="matrix(0.4340277777777778,0,0,0.4340277777777778,565.7039518575816,250.0000007314659)"><svg viewBox="0 0 243 280" data-background-color="#ffffff" preserveAspectRatio="xMidYMid meet" height="2304" width="2000" xmlns="http://www.w3.org/2000/svg" xmlns:xlink="http://www.w3.org/1999/xlink"><g id="tight-bounds" transform="matrix(1,0,0,1,0.07509853279606205,-2.0481044771258894e-7)"><svg viewBox="0 0 242.84980293440785 280" height="280" width="242.84980293440785"><g><svg viewBox="0 0 278.2696 320.8381767599971" height="280" width="242.84980293440785"><g><svg viewBox="0 0 278.2696 320.8381767599971" height="320.8381767599971" width="278.2696"><g id="textblocktransform"><svg viewBox="0 0 278.2696 320.8381767599971" height="320.8381767599971" width="278.2696" id="textblock"><g><svg viewBox="0 0 278.2696 278.2696" height="278.2696" width="278.2696"><g transform="matrix(1,0,0,1,80.85389445353286,73.54602628064397)"><svg viewBox="0 0 116.56181109293429 131.17754743871208" height="131.17754743871208" width="116.56181109293429"><g><svg xmlns="http://www.w3.org/2000/svg" xmlns:xlink="http://www.w3.org/1999/xlink" version="1.1" x="0" y="0" viewBox="6 5.666999816894531 80.0459976196289 90.08300018310547" enable-background="new 0 0 100 100" xml:space="preserve" height="131.17754743871208" width="116.56181109293429" class="icon-o-0" data-fill-palette-color="accent" id="o-0"><g fill="#8d021f" data-fill-palette-color="accent"><g fill="#8d021f" data-fill-palette-color="accent"><path d="M33.583 39.133C18.374 39.133 6 31.626 6 22.4S18.374 5.667 33.583 5.667c15.21 0 27.583 7.507 27.583 16.733S48.794 39.133 33.583 39.133zM33.583 6.984C19.1 6.984 7.317 13.899 7.317 22.4c0 8.5 11.783 15.416 26.266 15.416 14.483 0 26.267-6.916 26.267-15.416C59.851 13.899 48.066 6.984 33.583 6.984z" fill="#ffffff" data-fill-palette-color="accent"></path></g><g fill="#8d021f" data-fill-palette-color="accent"><path d="M49.256 48.476c-3.523 0-6.284-1.724-6.284-3.923 0-2.201 2.761-3.924 6.284-3.924 3.525 0 6.285 1.723 6.285 3.924C55.541 46.752 52.781 48.476 49.256 48.476zM49.256 41.837c-2.692 0-4.967 1.244-4.967 2.715 0 1.471 2.274 2.714 4.967 2.714 2.693 0 4.969-1.243 4.969-2.714C54.225 43.081 51.949 41.837 49.256 41.837z" fill="#ffffff" data-fill-palette-color="accent"></path></g><g fill="#8d021f" data-fill-palette-color="accent"><path d="M57.093 55.609c-2.284 0-4.074-1.172-4.074-2.668s1.79-2.667 4.074-2.667c2.285 0 4.074 1.171 4.074 2.667S59.378 55.609 57.093 55.609zM57.093 51.591c-1.578 0-2.757 0.714-2.757 1.351 0 0.638 1.179 1.352 2.757 1.352 1.579 0 2.758-0.714 2.758-1.352C59.851 52.305 58.672 51.591 57.093 51.591z" fill="#ffffff" data-fill-palette-color="accent"></path></g><g fill="#8d021f" data-fill-palette-color="accent"><circle fill="#ffffff" cx="68.647" cy="66.605" r="8.9" data-fill-palette-color="accent"></circle></g><g fill="#8d021f" data-fill-palette-color="accent"><path fill="#ffffff" d="M86.046 95.75c-1.526-10.284-8.729-18.078-17.398-18.078-8.67 0-15.873 7.794-17.398 18.078H86.046z" data-fill-palette-color="accent"></path></g></g></svg></g></svg></g><g><path d="M29.86 109.163l-1.979-1.079c0.351-1.304 0.506-2.254 0.467-2.853-0.04-0.598-0.312-1.084-0.817-1.459-0.503-0.381-1.427-0.816-2.774-1.303v0l-16.641-6.024c-0.649 1.95-1.001 3.317-1.057 4.102-0.062 0.782 0.167 1.427 0.687 1.935 0.523 0.502 1.59 1.163 3.201 1.981v0l-0.707 2.573c-2.252-1.114-4.72-2.217-7.407-3.311v0l-0.205-0.523 1.725-3.41 4.459-12.318 0.885-3.801 0.492-0.27c2.814 0.898 5.346 1.618 7.598 2.163v0l-0.707 2.573c-1.864-0.376-3.162-0.547-3.893-0.512-0.725 0.037-1.307 0.346-1.745 0.927-0.434 0.59-1.018 1.77-1.751 3.54v0c1.67 0.754 4.346 1.865 8.028 3.333 3.676 1.466 7.021 2.744 10.035 3.835v0c0.975 0.353 1.73 0.431 2.265 0.233 0.534-0.198 0.945-0.694 1.231-1.487v0c0.257-0.711 0.477-1.436 0.659-2.174v0l0.257-0.089 2.088 1.162c-1.025 2.497-1.838 4.577-2.439 6.238v0c-0.67 1.85-1.321 3.856-1.955 6.018z" fill="#ffffff" data-fill-palette-color="primary"></path><path d="M43.722 79.496l-1.579-1.654c0.599-1.143 0.838-2.034 0.719-2.674-0.114-0.635-0.629-1.323-1.545-2.065v0l-13.203-10.748c-0.697-0.565-1.233-0.865-1.608-0.902-0.374-0.027-0.755 0.198-1.142 0.677v0l-0.783 1.109-0.304-0.039-1.421-1.578 1.649-1.972c0.375-0.42 0.855-0.991 1.44-1.714v0c0.531-0.655 1.557-2.102 3.078-4.341v0l1.663 1.567c-0.405 0.723-0.642 1.271-0.713 1.645-0.069 0.383 0.02 0.757 0.268 1.121 0.252 0.359 0.728 0.861 1.428 1.506v0l4.889 4.284 4.037-4.92c0.99-1.222 2.094-2.765 3.312-4.63v0l-5.499-4.519c-0.697-0.565-1.235-0.863-1.614-0.894-0.37-0.033-0.751 0.193-1.142 0.676v0c-0.249 0.307-0.507 0.674-0.777 1.102v0l-0.31-0.031-1.447-1.547 0.777-0.895 2.23-2.689c0.531-0.655 1.609-2.167 3.236-4.536v0l1.638 1.598c-0.544 0.894-0.806 1.574-0.786 2.038 0.016 0.469 0.333 0.971 0.95 1.506v0c2.058 1.883 4.386 3.941 6.986 6.176 2.599 2.235 4.705 4.005 6.316 5.312v0c0.853 0.691 1.513 1.062 1.98 1.112 0.467 0.051 0.921-0.197 1.364-0.742v0c0.194-0.239 0.522-0.714 0.985-1.424v0l0.272 0 1.53 1.731c-0.232 0.286-0.43 0.504-0.595 0.655v0c-1.314 1.537-2.325 2.742-3.033 3.615v0l-3.28 4.177-1.523-1.725c0.527-0.693 0.839-1.28 0.936-1.761 0.097-0.481-0.025-0.968-0.367-1.46-0.342-0.492-0.97-1.109-1.886-1.851v0l-4.617-3.741-3.557 4.327c-0.404 0.499-0.946 1.236-1.624 2.212-0.679 0.966-1.398 2.007-2.156 3.124v0l5.253 4.423c0.894 0.725 1.561 1.119 2.001 1.182 0.435 0.069 0.874-0.17 1.316-0.716v0c0.16-0.198 0.497-0.683 1.011-1.455v0l0.246 0.032 1.531 1.73c-0.308 0.327-0.73 0.8-1.265 1.418-0.531 0.612-1.036 1.215-1.516 1.807v0c-0.725 0.894-1.499 1.93-2.322 3.106-0.829 1.172-1.304 1.923-1.427 2.255z" fill="#ffffff" data-fill-palette-color="primary"></path><path d="M83.592 42.88c-2.048 1.163-4.115 1.718-6.201 1.664-2.083-0.064-4.045-0.719-5.886-1.968-1.84-1.248-3.405-3.007-4.694-5.276v0c-1.388-2.444-2.12-4.938-2.194-7.482-0.066-2.541 0.494-4.883 1.678-7.025 1.19-2.146 2.934-3.872 5.233-5.178v0c2.101-1.193 4.209-1.771 6.324-1.733 2.124 0.04 4.105 0.67 5.944 1.889 1.835 1.213 3.399 2.956 4.691 5.231v0c1.401 2.467 2.137 4.982 2.207 7.544 0.061 2.559-0.527 4.925-1.764 7.098-1.237 2.172-3.016 3.918-5.338 5.236zM83.284 39.858c1.367-0.777 2.36-1.814 2.978-3.112 0.62-1.307 0.837-2.788 0.65-4.444-0.181-1.66-0.77-3.368-1.769-5.126v0c-1.193-2.101-2.529-3.755-4.007-4.962-1.482-1.213-3.015-1.92-4.599-2.122-1.581-0.195-3.104 0.124-4.571 0.957v0c-1.338 0.76-2.305 1.782-2.899 3.067-0.597 1.293-0.794 2.756-0.59 4.387 0.203 1.632 0.804 3.326 1.802 5.084v0c1.193 2.101 2.52 3.76 3.981 4.977 1.47 1.22 2.983 1.946 4.539 2.178 1.547 0.23 3.042-0.065 4.485-0.884z" fill="#ffffff" data-fill-palette-color="primary"></path><path d="M122.062 29.562c-3.02 0.483-5.45 0.076-7.292-1.222-1.848-1.297-3.009-3.429-3.484-6.396v0l-2.17-13.56c-0.142-0.885-0.333-1.468-0.575-1.748-0.24-0.273-0.654-0.363-1.242-0.269v0c-0.278 0.044-0.553 0.102-0.826 0.173-0.266 0.076-0.441 0.121-0.528 0.135v0l-0.106-0.155-0.066-2.257c0.362-0.024 1.061-0.105 2.095-0.244 1.028-0.138 2.098-0.295 3.208-0.473v0c0.72-0.115 1.585-0.304 2.594-0.567 1.016-0.258 1.673-0.427 1.972-0.509v0l0.118 2.33c-0.953 0.268-1.572 0.594-1.856 0.978-0.276 0.39-0.368 0.96-0.275 1.711v0l1.614 12.246c0.395 2.465 1.234 4.279 2.518 5.443 1.276 1.158 2.916 1.577 4.918 1.256v0c1.996-0.319 3.433-1.102 4.311-2.347 0.884-1.253 1.159-2.92 0.826-5.002v0c-0.377-2.183-0.811-4.665-1.303-7.447-0.486-2.782-0.833-4.74-1.042-5.872v0c-0.211-0.935-0.427-1.528-0.65-1.776-0.223-0.249-0.612-0.329-1.167-0.24v0c-0.304 0.049-0.622 0.113-0.955 0.193-0.325 0.086-0.544 0.138-0.656 0.156v0l-0.107-0.156-0.026-2.263c0.337-0.054 0.978-0.133 1.924-0.236 0.951-0.112 1.899-0.243 2.844-0.395v0c0.806-0.129 1.671-0.318 2.593-0.567 0.93-0.244 1.531-0.404 1.804-0.482v0l0.152 2.283c-0.784 0.268-1.342 0.506-1.675 0.716-0.339 0.21-0.557 0.459-0.653 0.745-0.096 0.287-0.1 0.707-0.012 1.262v0l2.164 13.521c0.479 2.994-0.06 5.448-1.617 7.364-1.558 1.91-4.016 3.133-7.372 3.671z" fill="#ffffff" data-fill-palette-color="primary"></path><path d="M162.451 30.441c-2.487-0.465-4.55-1.393-6.189-2.782-1.638-1.396-2.772-3.16-3.401-5.293-0.63-2.126-0.7-4.502-0.208-7.127v0c0.548-2.927 1.625-5.371 3.231-7.331 1.611-1.952 3.635-3.323 6.07-4.113 2.434-0.784 5.112-0.902 8.032-0.356v0c1.052 0.197 2.166 0.484 3.342 0.861 1.169 0.375 2.167 0.719 2.994 1.03 0.827 0.311 1.36 0.517 1.6 0.616v0l0.137 0.414c-0.083 0.155-0.256 0.551-0.519 1.189-0.262 0.639-0.568 1.473-0.918 2.504-0.351 1.037-0.68 2.14-0.986 3.308v0l-2.901-0.328c0.053-0.099 0.131-0.353 0.235-0.763 0.104-0.409 0.207-0.891 0.311-1.443v0c0.228-1.217-0.035-2.175-0.79-2.875-0.754-0.699-2.098-1.23-4.032-1.592v0c-2.875-0.538-5.229-0.09-7.063 1.344-1.84 1.426-3.067 3.78-3.681 7.063v0c-0.439 2.348-0.48 4.441-0.123 6.278 0.35 1.842 1.067 3.342 2.151 4.498 1.083 1.163 2.483 1.905 4.199 2.226v0c0.881 0.165 1.707 0.211 2.477 0.136 0.768-0.067 1.386-0.166 1.853-0.296 0.466-0.124 0.763-0.218 0.89-0.283v0l0.844-4.509c0.166-0.888 0.137-1.496-0.088-1.824-0.226-0.321-0.753-0.56-1.582-0.715v0l-2.565-0.48-0.071-0.279 0.822-2.369c0.335 0.063 0.652 0.136 0.949 0.219v0c1.424 0.321 2.939 0.632 4.544 0.932v0c0.77 0.144 1.547 0.262 2.334 0.355 0.779 0.091 1.284 0.142 1.514 0.15v0l0.014 1.29c-0.688 0.327-1.212 0.91-1.573 1.748-0.353 0.833-0.734 2.338-1.142 4.515v0c-0.289 1.546-0.422 2.781-0.397 3.704v0l-0.363 0.361c-0.005 0.026-0.514 0.108-1.527 0.245-1.013 0.137-2.256 0.211-3.728 0.222-1.473 0.01-3.038-0.14-4.696-0.45z" fill="#ffffff" data-fill-palette-color="primary"></path><path d="M188.971 38.949l1.434-1.782c1.211 0.445 2.126 0.566 2.745 0.364 0.615-0.196 1.23-0.796 1.846-1.799v0l8.936-14.492c0.469-0.764 0.697-1.335 0.685-1.711-0.022-0.374-0.295-0.723-0.819-1.045v0l-1.203-0.631 0-0.307 1.379-1.615 2.17 1.378c0.465 0.317 1.094 0.718 1.887 1.205v0c0.719 0.441 2.287 1.27 4.705 2.486v0l-1.337 1.853c-0.769-0.307-1.344-0.471-1.724-0.492-0.389-0.019-0.748 0.118-1.077 0.411-0.323 0.296-0.759 0.834-1.307 1.612v0l-3.61 5.405 5.404 3.363c1.341 0.822 3.014 1.716 5.022 2.68v0l3.764-6.041c0.469-0.764 0.694-1.337 0.676-1.717-0.016-0.371-0.289-0.719-0.819-1.044v0c-0.337-0.206-0.735-0.415-1.194-0.626v0l-0.009-0.312 1.345-1.636 0.989 0.653 2.957 1.861c0.719 0.441 2.358 1.313 4.919 2.617v0l-1.372 1.833c-0.958-0.423-1.665-0.594-2.123-0.514-0.463 0.077-0.92 0.456-1.369 1.139v0c-1.598 2.286-3.336 4.862-5.214 7.73-1.877 2.868-3.358 5.186-4.443 6.955v0c-0.574 0.936-0.856 1.638-0.845 2.108 0.01 0.47 0.315 0.888 0.914 1.255v0c0.262 0.161 0.776 0.425 1.54 0.792v0l0.035 0.269-1.517 1.743c-0.314-0.192-0.556-0.361-0.726-0.505v0c-1.695-1.102-3.021-1.948-3.98-2.536v0l-4.569-2.708 1.512-1.734c0.756 0.432 1.378 0.665 1.868 0.698 0.49 0.034 0.956-0.151 1.4-0.554 0.444-0.403 0.973-1.107 1.589-2.111v0l3.108-5.065-4.754-2.964c-0.548-0.336-1.349-0.777-2.404-1.321-1.046-0.547-2.172-1.124-3.378-1.731v0l-3.702 5.784c-0.602 0.981-0.906 1.694-0.911 2.138-0.011 0.441 0.283 0.845 0.881 1.212v0c0.217 0.133 0.742 0.404 1.575 0.813v0l0.001 0.248-1.517 1.743c-0.365-0.263-0.888-0.619-1.57-1.069-0.676-0.446-1.34-0.869-1.99-1.268v0c-0.981-0.602-2.108-1.234-3.381-1.898-1.27-0.669-2.077-1.043-2.422-1.12z" fill="#ffffff" data-fill-palette-color="primary"></path><path d="M225.401 66.485l1.964-1.106c0.92 0.988 1.643 1.624 2.172 1.907 0.528 0.283 1.085 0.31 1.67 0.081 0.59-0.224 1.448-0.778 2.575-1.662v0l13.927-10.92c-1.31-1.584-2.282-2.607-2.918-3.07-0.63-0.467-1.298-0.615-2.005-0.443-0.703 0.177-1.828 0.732-3.376 1.665v0l-1.808-1.963c2.138-1.319 4.382-2.828 6.733-4.527v0l0.552 0.103 1.978 3.271 8.084 10.309 2.754 2.764-0.032 0.561c-2.252 1.911-4.206 3.676-5.861 5.297v0l-1.807-1.963c1.306-1.382 2.139-2.391 2.497-3.03 0.353-0.634 0.399-1.291 0.139-1.971-0.27-0.681-0.962-1.801-2.075-3.361v0c-1.524 1.017-3.885 2.697-7.08 5.042-3.191 2.34-6.048 4.5-8.571 6.477v0c-0.816 0.64-1.282 1.239-1.397 1.797-0.115 0.558 0.087 1.169 0.608 1.833v0c0.467 0.595 0.965 1.165 1.494 1.711v0l-0.06 0.264-2.092 1.155c-1.575-2.193-2.907-3.984-3.997-5.374v0c-1.214-1.548-2.57-3.164-4.068-4.847z" fill="#ffffff" data-fill-palette-color="primary"></path><path d="M245.986 101.057c-0.444-1.149-0.751-2.25-0.921-3.303-0.162-1.05-0.239-1.938-0.233-2.665 0.009-0.721 0.025-1.086 0.05-1.095v0l0.374-0.425c0.168-0.029 0.569-0.123 1.204-0.282 0.631-0.15 1.488-0.381 2.574-0.693 1.083-0.318 2.148-0.679 3.197-1.084v0l1.122 2.321c-1.729 0.668-2.983 1.303-3.762 1.905-0.773 0.6-1.202 1.3-1.287 2.101-0.079 0.798 0.14 1.865 0.656 3.201v0c0.567 1.467 1.363 2.515 2.388 3.145 1.025 0.63 2.115 0.722 3.271 0.276v0c0.993-0.383 1.658-1.132 1.995-2.245 0.34-1.107 0.61-2.693 0.809-4.758v0c0.019-0.1 0.053-0.401 0.104-0.901v0c0.223-2.375 0.632-4.316 1.226-5.822 0.586-1.511 1.678-2.575 3.276-3.192v0c1.417-0.547 2.866-0.623 4.347-0.227 1.472 0.393 2.819 1.196 4.041 2.41 1.222 1.214 2.188 2.738 2.897 4.574v0c0.415 1.074 0.726 2.112 0.934 3.115 0.208 1.003 0.343 1.815 0.404 2.437 0.063 0.628 0.092 1.019 0.087 1.172v0l-0.298 0.287c-0.391 0.065-1.277 0.242-2.658 0.532-1.378 0.296-2.834 0.679-4.366 1.149v0l-1.018-2.05 0.115-0.399c0.091-0.006 0.31-0.062 0.656-0.168 0.353-0.108 0.739-0.242 1.157-0.404v0c1.286-0.497 2.058-1.164 2.315-2.002 0.266-0.835 0.09-2.051-0.528-3.649v0c-0.497-1.286-1.225-2.224-2.185-2.815-0.969-0.594-1.94-0.703-2.913-0.327v0c-0.993 0.383-1.661 1.141-2.007 2.271-0.348 1.124-0.623 2.752-0.826 4.882v0c-0.179 1.877-0.376 3.392-0.59 4.544-0.221 1.154-0.633 2.232-1.237 3.232-0.61 1.003-1.489 1.727-2.638 2.171v0c-1.523 0.588-3.04 0.683-4.55 0.284-1.508-0.393-2.885-1.238-4.133-2.536-1.251-1.289-2.268-2.944-3.049-4.967z" fill="#ffffff" data-fill-palette-color="primary"></path><path d="M9.399 183.715l2.18-0.433c0.55 1.21 1.025 2.028 1.428 2.452 0.404 0.431 0.916 0.627 1.535 0.589 0.622-0.032 1.594-0.286 2.915-0.762v0l16.34-5.883c-0.733-1.877-1.323-3.13-1.77-3.759-0.447-0.629-1.024-0.968-1.732-1.019-0.704-0.059-1.925 0.106-3.662 0.497v0l-1.079-2.375c2.404-0.574 4.96-1.288 7.668-2.142v0l0.498 0.258 0.827 3.66 4.357 12.099 1.723 3.423-0.219 0.517c-2.682 1.086-5.045 2.129-7.089 3.128v0l-1.083-2.384c1.645-0.884 2.733-1.567 3.263-2.05 0.53-0.483 0.776-1.083 0.738-1.802-0.038-0.719-0.337-1.973-0.896-3.764v0c-1.729 0.473-4.447 1.31-8.155 2.51-3.699 1.204-7.025 2.338-9.978 3.401v0c-0.963 0.347-1.586 0.76-1.869 1.238-0.274 0.483-0.271 1.115 0.01 1.896v0c0.252 0.699 0.541 1.384 0.868 2.056v0l-0.14 0.232-2.298 0.432c-0.797-2.53-1.49-4.613-2.08-6.25v0c-0.653-1.813-1.42-3.735-2.3-5.765z" fill="#ffffff" data-fill-palette-color="primary"></path><path d="M26.511 220.148l1.916-1.174c0.971 0.807 1.774 1.22 2.41 1.239 0.636 0.02 1.406-0.337 2.311-1.068v0l13.014-10.473c0.687-0.555 1.085-1.011 1.194-1.365 0.104-0.351-0.036-0.763-0.419-1.237v0l-0.889-0.972 0.08-0.284 1.816-1.043 1.553 1.985c0.328 0.449 0.779 1.027 1.351 1.735v0c0.518 0.64 1.695 1.921 3.534 3.842v0l-1.834 1.277c-0.614-0.536-1.095-0.875-1.442-1.016-0.351-0.147-0.723-0.138-1.116 0.024-0.403 0.162-0.985 0.517-1.747 1.065v0l-5.114 3.813 3.895 4.88c0.972 1.202 2.23 2.582 3.773 4.139v0l5.458-4.362c0.687-0.555 1.085-1.011 1.194-1.365 0.104-0.351-0.036-0.763-0.419-1.237v0c-0.24-0.297-0.538-0.623-0.896-0.979v0l0.087-0.277 1.791-1.074 0.694 0.923 2.128 2.695c0.522 0.645 1.752 1.991 3.691 4.038v0l-1.865 1.237c-0.749-0.703-1.348-1.092-1.796-1.168-0.458-0.077-1.005 0.124-1.642 0.605v0c-2.228 1.587-4.681 3.402-7.357 5.446-2.681 2.039-4.814 3.7-6.401 4.983v0c-0.833 0.673-1.322 1.228-1.468 1.665-0.142 0.442 0.004 0.931 0.437 1.466v0c0.189 0.234 0.577 0.644 1.162 1.23v0l-0.057 0.265-1.966 1.112c-0.227-0.281-0.4-0.516-0.518-0.704v0c-1.204-1.574-2.153-2.79-2.848-3.649v0l-3.338-4 1.966-1.113c0.555 0.644 1.053 1.063 1.495 1.257 0.441 0.194 0.935 0.177 1.483-0.05 0.542-0.223 1.264-0.699 2.163-1.427v0l4.535-3.667-3.428-4.303c-0.4-0.494-0.995-1.166-1.785-2.016-0.79-0.85-1.647-1.754-2.568-2.713v0l-5.313 4.142c-0.879 0.711-1.397 1.268-1.555 1.67-0.153 0.407-0.012 0.879 0.422 1.415v0c0.16 0.198 0.56 0.623 1.2 1.276v0l-0.089 0.226-1.966 1.113c-0.257-0.36-0.627-0.861-1.112-1.502-0.48-0.636-0.953-1.243-1.42-1.821v0c-0.711-0.879-1.545-1.836-2.502-2.87-0.966-1.035-1.594-1.646-1.883-1.834z" fill="#ffffff" data-fill-palette-color="primary"></path><path d="M72.468 262.045c-2.012-1.145-3.519-2.611-4.52-4.397-0.992-1.789-1.426-3.772-1.303-5.951 0.132-2.181 0.832-4.385 2.1-6.612v0c1.364-2.396 3.101-4.265 5.211-5.605 2.11-1.34 4.368-2.046 6.772-2.117 2.408-0.077 4.74 0.526 6.997 1.81v0c2.059 1.172 3.605 2.664 4.637 4.476 1.032 1.812 1.497 3.797 1.393 5.955-0.107 2.164-0.795 4.36-2.063 6.588v0c-1.377 2.42-3.13 4.302-5.258 5.647-2.125 1.339-4.415 2.034-6.869 2.085-2.451 0.045-4.817-0.581-7.097-1.879zM74.865 260.268c1.338 0.761 2.71 1.076 4.117 0.945 1.416-0.134 2.774-0.693 4.074-1.678 1.309-0.988 2.453-2.342 3.433-4.064v0c1.175-2.065 1.903-4.026 2.182-5.884 0.276-1.852 0.103-3.495-0.522-4.929-0.63-1.437-1.663-2.564-3.1-3.381v0c-1.32-0.751-2.672-1.055-4.055-0.91-1.381 0.153-2.709 0.722-3.985 1.705-1.279 0.989-2.409 2.345-3.389 4.066v0c-1.175 2.065-1.907 4.02-2.194 5.866-0.291 1.852-0.146 3.49 0.437 4.915 0.589 1.428 1.589 2.545 3.002 3.349z" fill="#ffffff" data-fill-palette-color="primary"></path><path d="M118.46 278.041c-2.967-0.476-5.111-1.6-6.433-3.371-1.321-1.778-1.748-4.124-1.28-7.038v0l2.137-13.311c0.14-0.872 0.139-1.476-0.004-1.81-0.144-0.328-0.5-0.538-1.068-0.629v0c-0.278-0.045-0.554-0.075-0.829-0.092-0.275-0.017-0.452-0.032-0.532-0.045v0l-0.064-0.173 0.635-2.115c0.353 0.084 1.029 0.219 2.029 0.407 1.007 0.189 2.055 0.371 3.145 0.546v0c0.707 0.114 1.571 0.201 2.591 0.264 1.026 0.07 1.69 0.115 1.991 0.136v0l-0.609 2.21c-0.968-0.047-1.641 0.065-2.016 0.338-0.383 0.277-0.647 0.781-0.792 1.509v0l-2.249 11.921c-0.388 2.418-0.162 4.366 0.679 5.843 0.834 1.476 2.232 2.371 4.194 2.687v0c1.962 0.315 3.545 0.023 4.746-0.875 1.208-0.897 1.976-2.367 2.304-4.409v0c0.318-2.152 0.677-4.599 1.077-7.34 0.393-2.743 0.666-4.675 0.819-5.796v0c0.096-0.934 0.077-1.553-0.057-1.86-0.135-0.3-0.473-0.493-1.016-0.58v0c-0.297-0.048-0.613-0.085-0.948-0.111-0.328-0.026-0.548-0.047-0.66-0.066v0l-0.054-0.171 0.674-2.108c0.324 0.052 0.948 0.173 1.874 0.362 0.919 0.188 1.841 0.356 2.765 0.505v0c0.786 0.126 1.65 0.214 2.591 0.263 0.947 0.057 1.557 0.094 1.833 0.111v0l-0.562 2.167c-0.809 0.013-1.403 0.066-1.784 0.161-0.38 0.088-0.658 0.254-0.832 0.497-0.18 0.235-0.314 0.624-0.401 1.166v0l-2.131 13.271c-0.472 2.94-1.728 5.064-3.767 6.37-2.04 1.306-4.705 1.695-7.996 1.166z" fill="#ffffff" data-fill-palette-color="primary"></path><path d="M166.526 277.076c-2.44 0.457-4.658 0.341-6.653-0.348-1.996-0.695-3.659-1.906-4.989-3.631-1.338-1.731-2.248-3.882-2.73-6.454v0c-0.538-2.875-0.419-5.494 0.357-7.859 0.784-2.36 2.148-4.331 4.091-5.913 1.949-1.59 4.361-2.655 7.236-3.193v0c1.026-0.192 2.145-0.323 3.357-0.394 1.206-0.069 2.243-0.11 3.113-0.123 0.864-0.005 1.422-0.004 1.675 0.003v0l0.276 0.326c-0.022 0.174-0.041 0.6-0.057 1.278-0.01 0.676 0.008 1.551 0.052 2.625 0.043 1.068 0.134 2.191 0.273 3.37v0l-2.763 0.732c0.007-0.11-0.015-0.372-0.065-0.785-0.05-0.413-0.126-0.889-0.227-1.428v0c-0.224-1.197-0.806-1.98-1.747-2.349-0.942-0.375-2.36-0.385-4.254-0.031v0c-2.822 0.528-4.819 1.774-5.99 3.736-1.179 1.957-1.467 4.55-0.862 7.78v0c0.431 2.302 1.136 4.233 2.116 5.793 0.978 1.553 2.171 2.668 3.577 3.344 1.4 0.677 2.942 0.859 4.626 0.543v0c0.862-0.161 1.635-0.412 2.321-0.751 0.679-0.338 1.21-0.649 1.593-0.931 0.384-0.276 0.621-0.467 0.71-0.572v0l-0.83-4.43c-0.163-0.868-0.404-1.412-0.724-1.632-0.32-0.219-0.888-0.252-1.704-0.099v0l-2.516 0.471-0.174-0.223-0.084-2.466c0.329-0.062 0.644-0.107 0.945-0.136v0c1.418-0.211 2.912-0.463 4.484-0.758v0c0.763-0.143 1.518-0.311 2.265-0.505 0.747-0.194 1.226-0.325 1.438-0.392v0l0.474 1.167c-0.511 0.545-0.781 1.263-0.812 2.154-0.031 0.891 0.154 2.405 0.554 4.543v0c0.284 1.52 0.603 2.696 0.957 3.528v0l-0.211 0.458c0.005 0.026-0.43 0.285-1.305 0.776-0.883 0.485-1.996 0.993-3.34 1.524-1.344 0.531-2.828 0.948-4.453 1.252z" fill="#ffffff" data-fill-palette-color="primary"></path><path d="M200.804 265.465l-0.918-2.052c0.926-0.859 1.439-1.602 1.541-2.229 0.102-0.628-0.152-1.438-0.761-2.431v0l-8.704-14.257c-0.462-0.753-0.862-1.206-1.2-1.36-0.334-0.148-0.761-0.063-1.28 0.256v0l-1.079 0.756-0.271-0.116-0.8-1.936 2.169-1.283c0.487-0.268 1.119-0.64 1.894-1.116v0c0.702-0.431 2.124-1.433 4.267-3.008v0l1.029 1.983c-0.611 0.54-1.009 0.973-1.194 1.299-0.191 0.329-0.231 0.699-0.119 1.109 0.109 0.42 0.385 1.043 0.829 1.87v0l3.121 5.564 5.343-3.232c1.318-0.809 2.848-1.878 4.592-3.207v0l-3.621-5.975c-0.462-0.753-0.862-1.206-1.2-1.36-0.334-0.148-0.761-0.063-1.28 0.255v0c-0.325 0.2-0.688 0.453-1.087 0.762v0l-0.263-0.121-0.834-1.915 1.005-0.57 2.947-1.762c0.707-0.434 2.201-1.48 4.481-3.138v0l0.986 2.009c-0.793 0.652-1.257 1.195-1.39 1.631-0.136 0.444-0.006 1.013 0.387 1.705v0c1.286 2.415 2.769 5.081 4.45 7.999 1.675 2.921 3.047 5.252 4.115 6.992v0c0.56 0.913 1.047 1.47 1.461 1.671 0.42 0.198 0.923 0.116 1.511-0.245v0c0.257-0.158 0.713-0.489 1.369-0.993v0l0.256 0.09 0.849 2.094c-0.308 0.189-0.563 0.33-0.765 0.423v0c-1.716 0.991-3.045 1.775-3.986 2.352v0l-4.399 2.794-0.849-2.094c0.71-0.467 1.19-0.907 1.44-1.319 0.249-0.412 0.297-0.905 0.142-1.477-0.151-0.567-0.53-1.343-1.136-2.33v0l-3.051-4.971-4.709 2.843c-0.542 0.333-1.285 0.836-2.23 1.51-0.945 0.674-1.952 1.406-3.022 2.197v0l3.421 5.803c0.592 0.964 1.077 1.55 1.455 1.757 0.384 0.204 0.87 0.126 1.458-0.235v0c0.217-0.133 0.69-0.475 1.42-1.025v0l0.213 0.117 0.849 2.094c-0.39 0.208-0.935 0.511-1.633 0.908-0.693 0.394-1.356 0.785-1.989 1.173v0c-0.964 0.592-2.02 1.295-3.169 2.11-1.151 0.824-1.838 1.368-2.061 1.631z" fill="#ffffff" data-fill-palette-color="primary"></path><path d="M242.627 232.358l-1.526-1.617c0.733-1.109 1.172-1.947 1.317-2.512 0.15-0.571 0.044-1.109-0.317-1.613-0.358-0.509-1.089-1.198-2.196-2.065v0l-13.673-10.707c-1.2 1.619-1.947 2.785-2.242 3.497-0.295 0.713-0.275 1.383 0.059 2.009 0.324 0.628 1.114 1.574 2.368 2.837v0l-1.437 2.177c-1.764-1.73-3.729-3.515-5.892-5.354v0l-0.047-0.559 2.66-2.648 7.929-10.124 1.982-3.28 0.554-0.089c2.346 1.693 4.486 3.139 6.42 4.34v0l-1.443 2.184c-1.623-0.923-2.78-1.481-3.472-1.673-0.691-0.192-1.33-0.081-1.918 0.334-0.588 0.415-1.492 1.335-2.711 2.761v0c1.32 1.212 3.474 3.069 6.463 5.571 2.987 2.492 5.716 4.706 8.186 6.641v0c0.806 0.631 1.487 0.939 2.043 0.924 0.555-0.025 1.088-0.363 1.6-1.017v0c0.458-0.585 0.884-1.194 1.279-1.829v0l0.271-0.004 1.589 1.716c-1.718 2.02-3.114 3.716-4.187 5.086v0c-1.188 1.517-2.408 3.189-3.659 5.014z" fill="#ffffff" data-fill-palette-color="primary"></path><path d="M266.887 192.302c-0.437 1.137-0.94 2.141-1.511 3.011-0.567 0.879-1.094 1.58-1.582 2.102-0.479 0.519-0.731 0.773-0.756 0.764v0l-0.549 0.058c-0.147-0.085-0.502-0.279-1.067-0.582-0.562-0.309-1.339-0.704-2.33-1.185-0.997-0.483-2.011-0.923-3.042-1.319v0l0.711-2.437c1.699 0.653 3.029 1.016 3.989 1.091 0.961 0.075 1.735-0.151 2.325-0.677 0.583-0.529 1.128-1.452 1.634-2.77v0c0.552-1.437 0.661-2.721 0.329-3.853-0.33-1.138-1.061-1.924-2.192-2.358v0c-0.981-0.377-1.96-0.272-2.937 0.313-0.977 0.585-2.217 1.564-3.72 2.937v0c-0.081 0.062-0.304 0.26-0.668 0.593v0c-1.732 1.579-3.308 2.723-4.727 3.432-1.426 0.707-2.923 0.759-4.491 0.157v0c-1.393-0.535-2.497-1.432-3.311-2.691-0.82-1.261-1.276-2.734-1.368-4.418-0.089-1.69 0.213-3.438 0.907-5.243v0c0.405-1.056 0.864-2.016 1.375-2.881 0.511-0.865 0.952-1.545 1.321-2.041 0.363-0.498 0.597-0.799 0.702-0.902v0l0.408-0.027c0.325 0.218 1.085 0.675 2.28 1.371 1.195 0.696 2.508 1.375 3.938 2.039v0l-0.606 2.165-0.353 0.22c-0.065-0.054-0.261-0.161-0.586-0.322-0.322-0.152-0.688-0.307-1.101-0.466v0c-1.262-0.485-2.267-0.509-3.016-0.072-0.742 0.439-1.416 1.446-2.02 3.02v0c-0.482 1.256-0.566 2.417-0.252 3.484 0.314 1.067 0.946 1.783 1.896 2.147v0c0.981 0.377 1.969 0.269 2.964-0.324 0.995-0.593 2.265-1.596 3.811-3.009v0c1.367-1.246 2.51-2.215 3.43-2.909 0.915-0.702 1.923-1.218 3.024-1.548 1.102-0.33 2.221-0.276 3.358 0.16v0c1.493 0.573 2.657 1.501 3.491 2.782 0.834 1.281 1.282 2.804 1.342 4.569 0.06 1.765-0.29 3.638-1.05 5.619z" fill="#ffffff" data-fill-palette-color="primary"></path><path d="M3.28 142.793c0-5.786 4.69-10.476 10.476-10.476 5.786 0 10.476 4.69 10.477 10.476 0 5.786-4.69 10.476-10.477 10.477-5.786 0-10.476-4.69-10.476-10.477z" fill="#ffffff" data-fill-palette-color="primary"></path><path d="M254.689 142.793c0-5.786 4.69-10.476 10.477-10.476 5.786 0 10.476 4.69 10.476 10.476 0 5.786-4.69 10.476-10.476 10.477-5.786 0-10.476-4.69-10.477-10.477z" fill="#ffffff" data-fill-palette-color="primary"></path></g></svg></g><g transform="matrix(1,0,0,1,53.149493599999985,295.15336)"><svg viewBox="0 0 171.97061280000005 25.684816759997094" height="25.684816759997094" width="171.97061280000005"><g transform="matrix(1,0,0,1,0,0)"><svg width="171.97061280000005" viewBox="2.440000057220459 -36.88999938964844 335.3999938964844 50.099998474121094" height="25.684816759997094" data-palette-color="#8d021f"><path d="M13.89-16.43L2.44-34.69 7.35-34.69 16.19-20.36 25.22-34.69 29.86-34.69 18.04-16.43 18.04 0 13.89 0 13.89-16.43ZM45.75-24.58L45.75-24.58Q50.75-24.58 53.99-21.39 57.22-18.19 57.22-12.55L57.22-12.55Q57.22-6.57 53.92-3.04 50.61 0.49 45.36 0.49L45.36 0.49Q40.35 0.49 37.18-2.82 34.01-6.13 34.01-11.79L34.01-11.79Q34.01-17.63 37.24-21.11 40.48-24.58 45.75-24.58ZM45.41-21.17L45.41-21.17Q42.4-21.17 40.16-18.85 37.91-16.53 37.91-12.48L37.91-12.48Q37.91-8.45 40.11-5.69 42.31-2.93 45.8-2.93L45.8-2.93Q49.02-2.93 51.17-5.37 53.32-7.81 53.32-11.74L53.32-11.74Q53.32-13.99 52.62-15.82 51.93-17.65 50.79-18.8 49.66-19.95 48.26-20.56 46.87-21.17 45.41-21.17ZM80.73-4.98L80.73-24.12 84.74-24.12 84.74 0 81.93 0 81.07-2.03Q76.46 0.49 72.55 0.49L72.55 0.49Q70.58 0.49 69.11-0.13 67.65-0.76 66.84-1.68 66.04-2.61 65.55-4.04 65.06-5.47 64.92-6.76 64.79-8.06 64.79-9.72L64.79-9.72 64.79-24.12 68.79-24.12 68.79-9.42Q68.79-3.1 74.29-3.1L74.29-3.1Q77.12-3.1 80.73-4.98L80.73-4.98ZM96.33-24.12L97.09-22.31Q100.14-24.58 103.83-24.58L103.83-24.58Q106.36-24.58 108.44-23.63L108.44-23.63 107.22-20.43Q105.31-21.17 103.26-21.17L103.26-21.17Q100.21-21.17 97.53-19.48L97.53-19.48 97.53 0 93.52 0 93.52-24.12 96.33-24.12ZM124.43-31.03L124.43-34.69 151.77-34.69 151.77-31.03 140.17-31.03 140.17 0 136.02 0 136.02-31.03 124.43-31.03ZM166.98-21L166.98-21Q164.12-21 160.53-19.12L160.53-19.12 160.53 0 156.53 0 156.53-36.89 160.53-36.89 160.53-22.29Q164.8-24.56 168.54-24.56L168.54-24.56Q170.15-24.56 171.43-24.15 172.71-23.73 173.54-23.11 174.37-22.49 174.97-21.5 175.57-20.51 175.88-19.64 176.18-18.77 176.34-17.58 176.5-16.38 176.54-15.63 176.57-14.87 176.57-13.84L176.57-13.84 176.57 0 172.47 0 172.47-14.58Q172.47-21 166.98-21ZM195.88-24.58L195.88-24.58Q200.89-24.58 204.12-21.39 207.36-18.19 207.36-12.55L207.36-12.55Q207.36-6.57 204.05-3.04 200.74 0.49 195.49 0.49L195.49 0.49Q190.49 0.49 187.31-2.82 184.14-6.13 184.14-11.79L184.14-11.79Q184.14-17.63 187.37-21.11 190.61-24.58 195.88-24.58ZM195.54-21.17L195.54-21.17Q192.54-21.17 190.29-18.85 188.04-16.53 188.04-12.48L188.04-12.48Q188.04-8.45 190.24-5.69 192.44-2.93 195.93-2.93L195.93-2.93Q199.15-2.93 201.3-5.37 203.45-7.81 203.45-11.74L203.45-11.74Q203.45-13.99 202.75-15.82 202.06-17.65 200.92-18.8 199.79-19.95 198.4-20.56 197-21.17 195.54-21.17ZM230.86-4.98L230.86-24.12 234.87-24.12 234.87 0 232.06 0 231.21-2.03Q226.59 0.49 222.69 0.49L222.69 0.49Q220.71 0.49 219.24-0.13 217.78-0.76 216.97-1.68 216.17-2.61 215.68-4.04 215.19-5.47 215.06-6.76 214.92-8.06 214.92-9.72L214.92-9.72 214.92-24.12 218.93-24.12 218.93-9.42Q218.93-3.1 224.42-3.1L224.42-3.1Q227.25-3.1 230.86-4.98L230.86-4.98ZM253.59-24.61L253.59-24.61Q256.47-24.61 260.26-22.68L260.26-22.68 260.77-24.12 263.58-24.12 263.58 1.51Q263.58 2.25 263.53 2.93 263.48 3.61 263.23 4.86 262.99 6.1 262.55 7.13 262.11 8.15 261.22 9.34 260.33 10.52 259.12 11.33 257.91 12.13 256 12.67 254.08 13.21 251.71 13.21L251.71 13.21Q247.98 13.21 244.24 11.65L244.24 11.65 245.36 8.74Q248.37 9.86 251.2 9.86L251.2 9.86Q259.57 9.86 259.57 0.61L259.57 0.61 259.57-1.17Q256.42 0.49 253.2 0.49L253.2 0.49Q251.64 0.49 250.15 0.09 248.66-0.32 247.23-1.26 245.8-2.2 244.74-3.6 243.68-5 243.03-7.17 242.38-9.33 242.38-11.99L242.38-11.99Q242.38-14.79 243.17-17.05 243.95-19.31 245.14-20.68 246.34-22.05 247.89-22.97 249.44-23.9 250.86-24.26 252.27-24.61 253.59-24.61ZM253.83-21.36L253.83-21.36Q250.44-21.36 248.37-18.92 246.29-16.48 246.29-12.45L246.29-12.45Q246.29-9.77 247.15-7.62 248-5.47 249.86-4.14 251.71-2.81 254.32-2.81L254.32-2.81Q256.98-2.81 259.57-4.2L259.57-4.2 259.57-20Q256.23-21.36 253.83-21.36ZM283.06-21L283.06-21Q280.2-21 276.61-19.12L276.61-19.12 276.61 0 272.61 0 272.61-36.89 276.61-36.89 276.61-22.29Q280.88-24.56 284.62-24.56L284.62-24.56Q286.23-24.56 287.51-24.15 288.79-23.73 289.62-23.11 290.45-22.49 291.05-21.5 291.65-20.51 291.95-19.64 292.26-18.77 292.42-17.58 292.58-16.38 292.61-15.63 292.65-14.87 292.65-13.84L292.65-13.84 292.65 0 288.55 0 288.55-14.58Q288.55-21 283.06-21ZM313.69-3.15L314.25-0.42Q310.71 0.49 308.74 0.49 306.76 0.49 305.39-0.15 304.03-0.78 303.32-1.95 302.61-3.13 302.3-4.48 302-5.83 302-7.59L302-7.59 302-20.97 298.75-20.97 298.75-24.12 302-24.12 302-31.03 306-31.03 306-24.12 313.35-24.12 313.35-20.97 306-20.97 306-7.64Q306-2.64 309.96-2.64L309.96-2.64Q310.67-2.64 313.69-3.15L313.69-3.15ZM330.37-24.58L330.37-24.58Q330.88-24.58 331.33-24.57 331.78-24.56 332.21-24.51 332.64-24.46 332.94-24.44 333.25-24.41 333.65-24.34 334.05-24.27 334.24-24.23 334.42-24.19 334.85-24.08 335.27-23.97 335.37-23.95 335.47-23.93 335.94-23.78 336.42-23.63 336.49-23.61L336.49-23.61 335.47-20.56Q332.2-21.46 329.71-21.46L329.71-21.46Q328.27-21.46 327.16-21.17 326.04-20.87 325.45-20.46 324.85-20.04 324.47-19.49 324.09-18.95 323.98-18.53 323.87-18.12 323.87-17.72L323.87-17.72Q323.87-16.72 324.91-15.94 325.95-15.16 327.5-14.67 329.05-14.18 330.85-13.51 332.66-12.84 334.21-12.1 335.76-11.35 336.8-10.01 337.84-8.67 337.84-6.91L337.84-6.91Q337.84-5.91 337.58-4.97 337.32-4.03 336.6-3 335.88-1.98 334.75-1.23 333.61-0.49 331.71 0 329.8 0.49 327.34 0.49L327.34 0.49Q323.6 0.49 319.14-1.34L319.14-1.34 320.26-4.37Q322.77-3.44 324.37-3.05 325.97-2.66 327.51-2.66L327.51-2.66Q333.47-2.66 333.47-6.45L333.47-6.45Q333.47-7.28 332.88-7.91 332.29-8.54 331.32-8.95 330.34-9.35 329.11-9.78 327.88-10.21 326.59-10.57 325.31-10.94 324.08-11.54 322.85-12.13 321.87-12.85 320.89-13.57 320.31-14.72 319.72-15.87 319.72-17.31L319.72-17.31Q319.72-18.19 320-19.1 320.28-20.02 321.05-21.03 321.82-22.05 322.97-22.81 324.12-23.58 326.03-24.08 327.95-24.58 330.37-24.58Z" opacity="1" transform="matrix(1,0,0,1,0,0)" fill="#ffffff" class="slogan-text-1" data-fill-palette-color="secondary" id="text-1"></path></svg></g></svg></g></svg></g></svg></g></svg></g><defs></defs></svg><rect width="242.84980293440785" height="280" fill="none" stroke="none" visibility="hidden"></rect></g></svg></g></svg>